<svg width="135" height="34" viewBox="0 0 135 34" fill="none" xmlns="http://www.w3.org/2000/svg">
<path d="M33.7699 27V6.63636H38.0753V15.6151H38.3438L45.6719 6.63636H50.8324L43.2756 15.7543L50.9219 27H45.7713L40.1932 18.6278L38.0753 21.2131V27H33.7699ZM57.3501 27.2884C56.3757 27.2884 55.5073 27.1193 54.745 26.7812C53.9827 26.4366 53.3795 25.9295 52.9354 25.2599C52.4979 24.5838 52.2791 23.742 52.2791 22.7344C52.2791 21.8859 52.4349 21.1733 52.7464 20.5966C53.058 20.0199 53.4822 19.5559 54.0192 19.2045C54.5561 18.8532 55.166 18.5881 55.8487 18.4091C56.5381 18.2301 57.2607 18.1042 58.0163 18.0312C58.9046 17.9384 59.6205 17.8523 60.1641 17.7727C60.7076 17.6866 61.102 17.5606 61.3473 17.3949C61.5926 17.2292 61.7152 16.9839 61.7152 16.6591V16.5994C61.7152 15.9697 61.5163 15.4825 61.1186 15.1378C60.7275 14.7931 60.1707 14.6207 59.4482 14.6207C58.6858 14.6207 58.0793 14.7898 57.6286 15.1278C57.1778 15.4593 56.8795 15.8769 56.7337 16.3807L52.8161 16.0625C53.0149 15.1345 53.406 14.3324 53.9893 13.6562C54.5727 12.9735 55.325 12.4498 56.2464 12.0852C57.1745 11.714 58.2483 11.5284 59.468 11.5284C60.3165 11.5284 61.1286 11.6278 61.9041 11.8267C62.6863 12.0256 63.379 12.3338 63.9822 12.7514C64.5921 13.169 65.0727 13.706 65.424 14.3622C65.7753 15.0118 65.951 15.7907 65.951 16.6989V27H61.9339V24.8821H61.8146C61.5694 25.3594 61.2412 25.7803 60.8303 26.1449C60.4193 26.5028 59.9254 26.7846 59.3487 26.9901C58.772 27.1889 58.1058 27.2884 57.3501 27.2884ZM58.5632 24.3651C59.1863 24.3651 59.7365 24.2424 60.2138 23.9972C60.6911 23.7453 61.0656 23.4072 61.3374 22.983C61.6091 22.5587 61.745 22.0781 61.745 21.5412V19.9205C61.6125 20.0066 61.4302 20.0862 61.1982 20.1591C60.9728 20.2254 60.7176 20.2884 60.4325 20.348C60.1475 20.401 59.8625 20.4508 59.5774 20.4972C59.2924 20.5369 59.0339 20.5734 58.8018 20.6065C58.3047 20.6795 57.8705 20.7955 57.4993 20.9545C57.1281 21.1136 56.8397 21.3291 56.6342 21.6009C56.4287 21.866 56.326 22.1974 56.326 22.5952C56.326 23.1719 56.5348 23.6127 56.9524 23.9176C57.3767 24.2159 57.9136 24.3651 58.5632 24.3651ZM73.0753 22.6051L73.0852 17.5241H73.7017L78.5938 11.7273H83.456L76.8835 19.4034H75.8793L73.0753 22.6051ZM69.2372 27V6.63636H73.473V27H69.2372ZM78.7827 27L74.2884 20.348L77.1122 17.3551L83.7443 27H78.7827ZM91.8654 27.2983C90.2944 27.2983 88.9421 26.9801 87.8086 26.3438C86.6817 25.7008 85.8133 24.7926 85.2035 23.6193C84.5936 22.4394 84.2887 21.044 84.2887 19.4332C84.2887 17.8622 84.5936 16.4834 85.2035 15.2969C85.8133 14.1103 86.6718 13.1856 87.7788 12.5227C88.8924 11.8598 90.1983 11.5284 91.6964 11.5284C92.704 11.5284 93.6419 11.6908 94.5103 12.0156C95.3853 12.3338 96.1476 12.8144 96.7972 13.4574C97.4535 14.1004 97.9639 14.9091 98.3285 15.8835C98.6931 16.8513 98.8754 17.9848 98.8754 19.2841V20.4474H85.979V17.8224H94.8881C94.8881 17.2126 94.7556 16.6723 94.4904 16.2017C94.2253 15.7311 93.8574 15.3632 93.3867 15.098C92.9227 14.8262 92.3825 14.6903 91.766 14.6903C91.123 14.6903 90.5529 14.8395 90.0558 15.1378C89.5652 15.4295 89.1808 15.8239 88.9023 16.321C88.6239 16.8116 88.4814 17.3584 88.4748 17.9616V20.4574C88.4748 21.2131 88.614 21.866 88.8924 22.4162C89.1774 22.9664 89.5785 23.3906 90.0955 23.6889C90.6126 23.9872 91.2257 24.1364 91.935 24.1364C92.4057 24.1364 92.8365 24.0701 93.2276 23.9375C93.6187 23.8049 93.9535 23.6061 94.2319 23.3409C94.5103 23.0758 94.7224 22.7509 94.8683 22.3665L98.7859 22.625C98.587 23.5663 98.1793 24.3883 97.5629 25.0909C96.953 25.7869 96.1642 26.3305 95.1964 26.7216C94.2352 27.1061 93.1249 27.2983 91.8654 27.2983ZM101.719 27V6.63636H105.955V14.2926H106.084C106.27 13.8816 106.538 13.464 106.89 13.0398C107.248 12.6089 107.712 12.2509 108.282 11.9659C108.858 11.6742 109.574 11.5284 110.429 11.5284C111.543 11.5284 112.57 11.8201 113.512 12.4034C114.453 12.9801 115.205 13.8518 115.769 15.0185C116.332 16.1785 116.614 17.6335 116.614 19.3835C116.614 21.0871 116.339 22.5256 115.789 23.6989C115.245 24.8655 114.503 25.7505 113.561 26.3537C112.627 26.9503 111.579 27.2486 110.419 27.2486C109.597 27.2486 108.898 27.1127 108.321 26.8409C107.751 26.5691 107.284 26.2277 106.919 25.8168C106.555 25.3991 106.276 24.9782 106.084 24.554H105.895V27H101.719ZM105.865 19.3636C105.865 20.2718 105.991 21.0639 106.243 21.7401C106.495 22.4162 106.86 22.9432 107.337 23.321C107.814 23.6922 108.394 23.8778 109.077 23.8778C109.766 23.8778 110.35 23.6889 110.827 23.3111C111.304 22.9266 111.666 22.3963 111.911 21.7202C112.163 21.0374 112.289 20.2519 112.289 19.3636C112.289 18.482 112.166 17.7064 111.921 17.0369C111.676 16.3674 111.314 15.8437 110.837 15.4659C110.36 15.0881 109.773 14.8991 109.077 14.8991C108.388 14.8991 107.804 15.0814 107.327 15.446C106.856 15.8106 106.495 16.3277 106.243 16.9972C105.991 17.6667 105.865 18.4555 105.865 19.3636ZM126.401 27.2983C124.83 27.2983 123.477 26.9801 122.344 26.3438C121.217 25.7008 120.348 24.7926 119.739 23.6193C119.129 22.4394 118.824 21.044 118.824 19.4332C118.824 17.8622 119.129 16.4834 119.739 15.2969C120.348 14.1103 121.207 13.1856 122.314 12.5227C123.428 11.8598 124.733 11.5284 126.232 11.5284C127.239 11.5284 128.177 11.6908 129.045 12.0156C129.92 12.3338 130.683 12.8144 131.332 13.4574C131.989 14.1004 132.499 14.9091 132.864 15.8835C133.228 16.8513 133.411 17.9848 133.411 19.2841V20.4474H120.514V17.8224H129.423C129.423 17.2126 129.291 16.6723 129.026 16.2017C128.76 15.7311 128.393 15.3632 127.922 15.098C127.458 14.8262 126.918 14.6903 126.301 14.6903C125.658 14.6903 125.088 14.8395 124.591 15.1378C124.1 15.4295 123.716 15.8239 123.438 16.321C123.159 16.8116 123.017 17.3584 123.01 17.9616V20.4574C123.01 21.2131 123.149 21.866 123.428 22.4162C123.713 22.9664 124.114 23.3906 124.631 23.6889C125.148 23.9872 125.761 24.1364 126.47 24.1364C126.941 24.1364 127.372 24.0701 127.763 23.9375C128.154 23.8049 128.489 23.6061 128.767 23.3409C129.045 23.0758 129.258 22.7509 129.403 22.3665L133.321 22.625C133.122 23.5663 132.714 24.3883 132.098 25.0909C131.488 25.7869 130.699 26.3305 129.732 26.7216C128.77 27.1061 127.66 27.2983 126.401 27.2983Z" fill="#FF0000"/>
<path d="M4.77372 4.66151C4.56731 5.02492 4.25063 5.57571 4.07249 5.88801C3.89153 6.20032 3.26382 7.29338 2.67569 8.31546C2.08756 9.33754 1.51923 10.3284 1.41178 10.5158C0.546557 12.0177 0.012153 12.9517 0.000842817 12.983C-0.00763979 13.0028 0.0489109 13.1278 0.125254 13.2584C0.297734 13.5565 1.36937 15.4189 2.54845 17.4716C3.04044 18.329 3.4985 19.124 3.56071 19.2347C3.62574 19.3454 4.01029 20.0126 4.41462 20.7167L5.14978 22H7.94056H10.7285L10.7709 21.8779C10.8671 21.6054 11.4665 19.882 11.7379 19.1041C12.1253 17.9912 14.7323 10.5158 15.1027 9.4511C16.0725 6.66025 16.9887 4.04259 17 4.02271C17.0085 4.01136 14.3449 4 11.082 4L5.14978 4.00284L4.77372 4.66151ZM9.57487 6.5041C9.57487 6.52398 9.5466 6.58644 9.51267 6.64038C9.45046 6.74259 8.72661 8.00032 7.03009 10.9558C6.49569 11.8842 6.01218 12.7274 5.95563 12.8268L5.84818 13.0057L6.14508 13.5224C6.30907 13.8035 6.65969 14.4139 6.92547 14.8738C7.18844 15.3338 7.73415 16.2792 8.13283 16.9748C8.53151 17.6703 9.02633 18.5278 9.22992 18.8826L9.60032 19.53H8.12435L6.64838 19.5271L6.30624 18.9252C5.96129 18.3233 4.74262 16.1997 3.54374 14.1158L2.90472 13.0057L3.14789 12.5827C3.4363 12.083 5.31095 8.81798 5.92736 7.74763C6.16487 7.33312 6.42783 6.87603 6.51265 6.73123L6.66534 6.47003H8.12152C9.26385 6.47003 9.57487 6.47855 9.57487 6.5041Z" fill="#FF0000"/>
<path d="M18.2591 11.0341C18.1997 11.1959 16.119 17.1722 16.0257 17.4448C15.9579 17.6407 15.7769 18.1631 15.6214 18.6088C15.466 19.0546 14.6235 21.4678 13.7499 23.9748C12.8764 26.4817 12.1272 28.6366 12.082 28.7672L12 29L17.9227 28.9943L23.8481 28.9858L24.1506 28.4606C24.4277 27.9836 26.0758 25.1132 26.2879 24.7413C26.4801 24.4035 28.2922 21.2521 28.394 21.0789C28.9311 20.1618 29.0216 19.9886 28.9962 19.9461C28.9679 19.9006 28.4195 18.9495 26.3077 15.2729C24.962 12.9306 24.8857 12.7972 24.3231 11.8148L23.8566 11H21.0635C18.8556 11 18.2675 11.0085 18.2591 11.0341ZM23.0933 14.7647C23.4976 15.4688 23.9895 16.3262 24.1845 16.6669C24.3824 17.0076 24.8772 17.8707 25.2871 18.5804C25.6942 19.2902 26.0419 19.9035 26.056 19.9432C26.0815 20.017 26.0702 20.0369 24.3824 22.9697C24.2637 23.1741 23.7605 24.0543 23.2629 24.923L22.3583 26.5016H20.8826H19.4068L19.6641 26.053C19.8055 25.8088 20.3228 24.9117 20.8119 24.0599C21.301 23.2082 22.0106 21.976 22.3865 21.3174C22.7654 20.6615 23.0905 20.0909 23.1103 20.0483C23.1414 19.9801 23.1159 19.9262 22.7371 19.2703C22.5166 18.8842 22.2226 18.3732 22.0897 18.1404C21.8494 17.723 20.8684 16.0196 20.4642 15.3155C20.3511 15.1196 20.091 14.6653 19.8846 14.3076C19.6782 13.947 19.486 13.612 19.4549 13.5609L19.3984 13.47L20.8769 13.4757L22.3583 13.4842L23.0933 14.7647Z" fill="#FF0000"/>
</svg>
