<svg width="153" height="35" viewBox="0 0 153 35" fill="none" xmlns="http://www.w3.org/2000/svg">
<path d="M36.8963 29V7.18182H41.5092V16.8018H41.7969L49.6484 7.18182H55.1776L47.081 16.951L55.2734 29H49.755L43.7784 20.0298L41.5092 22.7997V29H36.8963ZM62.1609 29.3089C61.1168 29.3089 60.1864 29.1278 59.3697 28.7656C58.5529 28.3963 57.9066 27.853 57.4308 27.1357C56.962 26.4112 56.7276 25.5092 56.7276 24.4297C56.7276 23.5206 56.8945 22.7571 57.2283 22.1392C57.5621 21.5213 58.0167 21.0241 58.592 20.6477C59.1673 20.2713 59.8207 19.9872 60.5522 19.7955C61.2908 19.6037 62.065 19.4688 62.8746 19.3906C63.8263 19.2912 64.5934 19.1989 65.1758 19.1136C65.7582 19.0213 66.1808 18.8864 66.4435 18.7088C66.7063 18.5312 66.8377 18.2685 66.8377 17.9205V17.8565C66.8377 17.1818 66.6246 16.6598 66.1985 16.2905C65.7795 15.9212 65.1829 15.7365 64.4087 15.7365C63.592 15.7365 62.9421 15.9176 62.4592 16.2798C61.9762 16.6349 61.6566 17.0824 61.5004 17.6222L57.3029 17.2812C57.516 16.2869 57.935 15.4276 58.56 14.7031C59.185 13.9716 59.9911 13.4105 60.9783 13.0199C61.9727 12.6222 63.1232 12.4233 64.43 12.4233C65.3391 12.4233 66.2092 12.5298 67.0401 12.7429C67.8782 12.956 68.6204 13.2862 69.2667 13.7337C69.9201 14.1811 70.435 14.7564 70.8114 15.4595C71.1879 16.1555 71.3761 16.9901 71.3761 17.9631V29H67.0721V26.7308H66.9442C66.6815 27.2422 66.3299 27.6932 65.8896 28.0838C65.4492 28.4673 64.9201 28.7692 64.3022 28.9893C63.6843 29.2024 62.9705 29.3089 62.1609 29.3089ZM63.4606 26.1768C64.1282 26.1768 64.7177 26.0455 65.229 25.7827C65.7404 25.5128 66.1417 25.1506 66.4329 24.696C66.7241 24.2415 66.8697 23.7266 66.8697 23.1513V21.4148C66.7276 21.5071 66.5323 21.5923 66.2837 21.6705C66.0423 21.7415 65.7688 21.8089 65.4634 21.8729C65.158 21.9297 64.8526 21.983 64.5472 22.0327C64.2418 22.0753 63.9648 22.1143 63.7163 22.1499C63.1836 22.228 62.7184 22.3523 62.3207 22.5227C61.9229 22.6932 61.614 22.924 61.3938 23.2152C61.1737 23.4993 61.0636 23.8544 61.0636 24.2805C61.0636 24.8984 61.2873 25.3707 61.7347 25.6974C62.1893 26.017 62.7646 26.1768 63.4606 26.1768ZM79.0092 24.2912L79.0199 18.8473H79.6804L84.9219 12.6364H90.1314L83.0895 20.8608H82.0135L79.0092 24.2912ZM74.897 29V7.18182H79.4354V29H74.897ZM85.1243 29L80.3089 21.8729L83.3345 18.6662L90.4403 29H85.1243ZM99.1415 29.3196C97.4583 29.3196 96.0094 28.9787 94.7949 28.2969C93.5875 27.608 92.6571 26.6349 92.0037 25.3778C91.3503 24.1136 91.0236 22.6186 91.0236 20.8928C91.0236 19.2095 91.3503 17.7322 92.0037 16.4609C92.6571 15.1896 93.5769 14.1989 94.763 13.4886C95.9561 12.7784 97.3553 12.4233 98.9604 12.4233C100.04 12.4233 101.045 12.5973 101.975 12.9453C102.913 13.2862 103.73 13.8011 104.426 14.4901C105.129 15.179 105.676 16.0455 106.066 17.0895C106.457 18.1264 106.652 19.3409 106.652 20.733V21.9794H92.8347V19.1669H102.38C102.38 18.5135 102.238 17.9347 101.954 17.4304C101.67 16.9261 101.276 16.532 100.771 16.2479C100.274 15.9567 99.6955 15.8111 99.035 15.8111C98.3461 15.8111 97.7353 15.9709 97.2026 16.2905C96.677 16.603 96.2651 17.0256 95.9668 17.5582C95.6685 18.0838 95.5158 18.6697 95.5087 19.3161V21.9901C95.5087 22.7997 95.6578 23.4993 95.9561 24.0888C96.2615 24.6783 96.6912 25.1328 97.2452 25.4524C97.7992 25.772 98.4561 25.9318 99.2161 25.9318C99.7203 25.9318 100.182 25.8608 100.601 25.7188C101.02 25.5767 101.379 25.3636 101.677 25.0795C101.975 24.7955 102.203 24.4474 102.359 24.0355L106.556 24.3125C106.343 25.321 105.906 26.2017 105.246 26.9545C104.593 27.7003 103.747 28.2827 102.71 28.7017C101.681 29.1136 100.491 29.3196 99.1415 29.3196ZM109.699 29V7.18182H114.237V15.3849H114.376C114.575 14.9446 114.862 14.4972 115.239 14.0426C115.622 13.581 116.119 13.1974 116.73 12.892C117.348 12.5795 118.115 12.4233 119.031 12.4233C120.225 12.4233 121.325 12.7358 122.334 13.3608C123.343 13.9787 124.149 14.9126 124.752 16.1626C125.356 17.4055 125.658 18.9645 125.658 20.8395C125.658 22.6648 125.363 24.206 124.774 25.4631C124.191 26.7131 123.396 27.6612 122.387 28.3075C121.386 28.9467 120.264 29.2663 119.021 29.2663C118.14 29.2663 117.391 29.1207 116.773 28.8295C116.162 28.5384 115.661 28.1726 115.271 27.7322C114.88 27.2848 114.582 26.8338 114.376 26.3793H114.173V29H109.699ZM114.142 20.8182C114.142 21.7912 114.276 22.6399 114.546 23.3643C114.816 24.0888 115.207 24.6534 115.718 25.0582C116.23 25.456 116.851 25.6548 117.583 25.6548C118.321 25.6548 118.946 25.4524 119.458 25.0476C119.969 24.6357 120.356 24.0675 120.619 23.343C120.889 22.6115 121.024 21.7699 121.024 20.8182C121.024 19.8736 120.892 19.0426 120.629 18.3253C120.367 17.608 119.98 17.0469 119.468 16.642C118.957 16.2372 118.328 16.0348 117.583 16.0348C116.844 16.0348 116.219 16.2301 115.708 16.6207C115.203 17.0114 114.816 17.5653 114.546 18.2827C114.276 19 114.142 19.8452 114.142 20.8182ZM136.143 29.3196C134.46 29.3196 133.011 28.9787 131.797 28.2969C130.589 27.608 129.659 26.6349 129.006 25.3778C128.352 24.1136 128.026 22.6186 128.026 20.8928C128.026 19.2095 128.352 17.7322 129.006 16.4609C129.659 15.1896 130.579 14.1989 131.765 13.4886C132.958 12.7784 134.357 12.4233 135.962 12.4233C137.042 12.4233 138.047 12.5973 138.977 12.9453C139.915 13.2862 140.732 13.8011 141.428 14.4901C142.131 15.179 142.678 16.0455 143.068 17.0895C143.459 18.1264 143.654 19.3409 143.654 20.733V21.9794H129.837V19.1669H139.382C139.382 18.5135 139.24 17.9347 138.956 17.4304C138.672 16.9261 138.278 16.532 137.773 16.2479C137.276 15.9567 136.697 15.8111 136.037 15.8111C135.348 15.8111 134.737 15.9709 134.205 16.2905C133.679 16.603 133.267 17.0256 132.969 17.5582C132.67 18.0838 132.518 18.6697 132.511 19.3161V21.9901C132.511 22.7997 132.66 23.4993 132.958 24.0888C133.263 24.6783 133.693 25.1328 134.247 25.4524C134.801 25.772 135.458 25.9318 136.218 25.9318C136.722 25.9318 137.184 25.8608 137.603 25.7188C138.022 25.5767 138.381 25.3636 138.679 25.0795C138.977 24.7955 139.205 24.4474 139.361 24.0355L143.558 24.3125C143.345 25.321 142.908 26.2017 142.248 26.9545C141.594 27.7003 140.749 28.2827 139.712 28.7017C138.683 29.1136 137.493 29.3196 136.143 29.3196Z" fill="#FF0000"/>
<path d="M5.73217 4.24181C5.51812 4.64251 5.18959 5.24989 5.00484 5.59425C4.81706 5.93867 4.16589 7.14402 3.55575 8.27113C2.94562 9.39823 2.35607 10.4909 2.24461 10.6975C1.34697 12.3537 0.792658 13.3837 0.781126 13.418C0.772415 13.4399 0.834976 13.5752 0.918768 13.7162C1.10813 14.0383 2.28484 16.0504 3.5796 18.2681C4.11987 19.1945 4.62282 20.0533 4.69118 20.173C4.76255 20.2926 5.18478 21.0134 5.62878 21.7741L6.43612 23.1606L9.41594 23.1063L12.3927 23.0521L12.4359 22.918C12.5338 22.6187 13.1438 20.7259 13.42 19.8714C13.8142 18.6491 16.4674 10.4385 16.8444 9.26912C17.8312 6.20386 18.7638 3.32869 18.7755 3.30678C18.7843 3.29422 15.9402 3.33361 12.4562 3.39706L6.12222 3.51551L5.73217 4.24181ZM10.8907 6.15976C10.891 6.18145 10.8619 6.25018 10.8266 6.30972C10.762 6.4225 10.0111 7.80947 8.25117 11.0686C7.69676 12.0924 7.19521 13.0222 7.13656 13.1318L7.02496 13.3291L7.35097 13.8874C7.53098 14.191 7.91599 14.8505 8.20781 15.3474C8.4966 15.8443 9.09577 16.8657 9.53359 17.6172C9.97141 18.3687 10.5147 19.295 10.7383 19.6785L11.1451 20.3779L9.5691 20.4066L7.9931 20.4322L7.61729 19.7818C7.23847 19.1315 5.90021 16.8371 4.58378 14.5857L3.88211 13.3864L4.13437 12.9199C4.4336 12.3688 6.37829 8.76842 7.01778 7.58808C7.26415 7.131 7.53695 6.62693 7.625 6.46723L7.78347 6.17914L9.33829 6.15083C10.558 6.12862 10.8902 6.13187 10.8907 6.15976Z" fill="#FF0000"/>
<path d="M20.3319 7.14712C20.2699 7.34516 18.0988 14.6577 18.0015 14.9912C17.9307 15.2309 17.7419 15.87 17.5797 16.4154C17.4174 16.9608 16.5383 19.9137 15.6268 22.9811C14.7152 26.0486 13.9335 28.6852 13.8864 28.845L13.8008 29.1299L20.1621 29.0648L26.5264 28.9962L26.8457 28.3524C27.1382 27.7676 28.8778 24.2492 29.1016 23.7933C29.3044 23.3792 31.2172 19.5161 31.3247 19.3038C31.8918 18.1796 31.9871 17.9674 31.9593 17.9157C31.9285 17.8606 31.3293 16.7054 29.0218 12.2401C27.5515 9.39535 27.4681 9.23329 26.8534 8.04021L26.3437 7.05057L23.3437 7.07801C20.9722 7.09969 20.3407 7.11586 20.3319 7.14712ZM25.564 11.6516C26.0057 12.5067 26.5432 13.5481 26.7563 13.9618C26.9725 14.3756 27.5131 15.4238 27.961 16.2859C28.4058 17.1479 28.7858 17.8928 28.8014 17.9411C28.8295 18.0309 28.8176 18.0553 27.0361 21.6504C26.9108 21.9009 26.3796 22.9798 25.8545 24.0447L24.8997 25.9797L23.3146 25.9942L21.7296 26.0087L22.0012 25.4588C22.1504 25.1595 22.6965 24.0597 23.2127 23.0157C23.7289 21.9716 24.4779 20.4612 24.8748 19.6538C25.2746 18.8499 25.6177 18.1504 25.6386 18.0982C25.6712 18.0148 25.6433 17.9492 25.2294 17.1527C24.9885 16.6837 24.6672 16.0631 24.522 15.7803C24.2595 15.2734 23.1877 13.2046 22.746 12.3494C22.6224 12.1115 22.3382 11.5598 22.1128 11.1253C21.8872 10.6874 21.6772 10.2805 21.6433 10.2185L21.5816 10.1082L23.1697 10.1006L24.7609 10.0964L25.564 11.6516Z" fill="#FF0000"/>
</svg>
